Patient4_TMGait_0pt6_02_right_21_EMG.mot
version=1
nRows=36
nColumns=33
inDegrees=no
endheader
time	1LAddLong	2LGlutMax	3LGlutMed	4LIliopsoas	5LSemiMemb	6LBicFemLong	7LRecFem	8LVastMed	9LVastLat	10LGasMed	11LTibAnt	12lTibPost	13LPeroneusLong	14LSol	15LExtDigLong	16LFlexDigLong	17RAddLong	18RGlutMax	19RGlutMed	20RIliopsoas	21RSemiMemb	22RBicFemLong	23RRecFem	24RVastMed	25RVastLat	26RGasMed	27RTibAnt	28RTibPost	29RPeroneusLong	30RSol	31RExtDigLong	32RFlexDigLong
25.22	0.014954	0.11246	0.034027	0.004578	0.037384	0.14938	0.010681	0.002594	0.05249	0.14542	0.010681	-0.013275	-1.1272	0.58929	0.021057	-0.089417	0.054016	-0.20355	0.44189	-0.17227	0.018768	0.043793	-0.028687	-0.10254	0.011292	0.00946	-0.072327	-0.001373	0.21927	-0.14481	-0.000458	0.002441
25.221	0.007324	0.14145	-0.039063	0.00412	-0.015869	-0.058136	0.018311	-0.005188	0.048676	0.18662	-0.016479	-0.016479	-0.43594	0.37582	-0.18829	-0.007172	0.016174	-0.19028	0.42236	-0.12802	0.004272	0.034943	-0.091553	-0.082703	-0.008392	-0.001678	-0.26733	-0.003662	0.26093	-0.023651	-0.003662	0.001831
25.222	-0.003967	0.085297	-0.050354	-0.009003	-0.039673	-0.3154	0.028687	0.006256	0.054016	0.42877	-0.057373	0.092621	0.079193	0.25085	-0.13916	0.17761	-0.009613	-0.25635	-0.20264	0.032043	0.010529	0.03006	-0.27924	-0.047455	-0.018158	-0.004883	-0.037994	-0.001526	-0.18982	0.061951	0.005646	-0.000305
25.223	0.000153	0.058441	0.053711	-0.003357	-0.027466	-0.22156	0.046997	-0.001678	0.05188	0.42206	-0.044098	-0.021973	-0.11841	0.1152	0.020294	-0.076599	-0.041504	-0.25299	-0.19486	0.00885	0.016479	0.019226	-0.26718	-0.060577	-0.021362	-0.002747	0.12421	-0.002136	-0.0383	0.06546	-0.003662	-0.006104
25.224	0.005341	0.090027	0.12909	0.006104	0.007019	-0.11139	0.02655	-0.008392	0.054932	0.23209	0.002136	-0.10071	-0.023346	-0.13275	0.009155	-0.062256	-0.038147	-0.22308	0.079956	-0.050201	0.004883	0.01236	-0.10849	-0.053711	-0.026093	0.002899	0.11261	-0.001526	0.14053	0.057831	-0.00061	0.000763
25.225	0.011902	0.10574	0.13779	-0.002441	0.016785	0.011292	0.022888	-0.001678	0.056458	-0.23514	0.032349	0.020447	0.083313	-0.10498	0.014038	0.27115	-0.029755	-0.18463	0.1033	-0.020599	-0.004578	0.004272	0.003662	-0.13397	-0.021667	0.005341	-0.86166	-0.005493	0.084381	-0.010986	0.001678	-0.000458
25.226	0.00061	0.11734	0.088501	0.00885	0.06073	0.11185	0.01236	0.004425	0.058746	-0.50964	0.041656	-0.034332	0.020905	-0.38681	-0.037231	0.048676	-0.020447	-0.12466	-0.004425	-0.027161	-0.005493	-0.024567	-0.006561	-0.11734	-0.045319	-0.002441	-0.93048	0.000305	-0.001526	-0.018311	0.000763	-0.010529
25.227	0.011597	0.075073	0.003967	0.025024	0.046844	0.082855	0.021362	0.006866	0.052032	-0.18127	0.002899	-0.045929	0.25314	-0.00946	0.037689	-0.15991	0.002747	-0.16007	-0.029755	-0.046082	-0.012665	-0.015717	0.020905	-0.15717	-0.044403	-0.016479	-0.25986	-0.001984	-0.000458	0.086975	-0.001678	-0.021057
25.228	0.005951	0.070343	0.083618	0.018921	0.054932	0.053711	-0.000763	-0.002289	0.045929	-0.19333	0.005951	0.038757	0.043793	0.001221	0.018311	-0.040131	0.007324	-0.22339	-0.089111	-0.027466	-0.013428	-0.015106	0.021515	-0.092316	-0.038452	-0.014343	0.1442	0.00061	0.083923	0.13962	-0.002136	-0.012512
25.229	0.002441	0.056915	0.069122	0.004272	0.059357	-0.020599	0.009003	0.000458	0.052185	-0.21408	-0.000153	0.066833	-0.014343	-0.18524	-0.045013	0.02655	0.011292	-0.2742	-0.067749	0.006866	-0.02121	-0.000916	0.073242	-0.10696	-0.029602	-0.00946	0.29159	-0.001831	0.11063	0.080414	0.000153	-0.004272
25.23	0.001526	0.044403	0.075531	-0.010071	0.041962	-0.084686	-0.010834	0.001678	0.045471	-0.22492	0.01236	-0.007172	0.2626	0.27969	-0.064392	-0.003967	0.003204	-0.22156	0.13504	-0.068359	-0.02121	-0.016937	0.074921	-0.10498	-0.036163	-0.002289	0.35294	-0.00061	0.03006	0.052795	-0.002747	-0.01709
25.231	-0.000458	0.034027	0.034027	0.004883	0.037842	-0.19043	0.016022	-0.008392	0.066071	-0.36041	0.027466	0.00412	0.14633	0.14252	-0.00885	0.009613	0.005798	-0.16602	0.053253	-0.079193	0	-0.023651	0.085754	-0.093231	-0.032043	-0.002441	0.24719	-0.000305	-0.090485	0.016785	-0.001526	-0.013123
25.232	0.010529	0.001068	-0.000458	-0.000305	0.035248	-0.16586	0.006409	0.001373	0.061798	-0.4071	0.031281	0.024567	0.046082	-0.039978	0.000153	0.010071	-0.007935	-0.1648	-0.070343	-0.10956	0.006561	-0.015411	0.084229	-0.14801	-0.044098	-0.001526	0.097504	0.001526	-0.1564	-0.014648	0.005646	-0.005188
25.233	0.016174	-0.03952	0.048523	-0.007172	0.040588	-0.09201	-0.000305	-0.006714	0.059357	-0.36423	0.012817	0.026855	0.018921	-0.044556	-0.032043	-0.020447	-0.014801	-0.16342	-0.12711	-0.11063	-0.009766	0.001526	0.022278	-0.1329	-0.043182	-0.007019	0.029144	-0.001373	-0.26566	-0.0177	0.001526	-0.002136
25.234	0.005188	-0.024567	0.034943	-0.007477	0.015869	0.011597	-0.014496	0.00061	0.053406	-0.2504	-0.003357	-0.002441	0.065308	0.040894	-0.083313	-0.051422	-0.018463	-0.1651	-0.091095	-0.023651	-0.034027	0.016022	0.022583	-0.14008	-0.036774	-0.001221	-0.054474	-0.002136	-0.32105	-0.083618	0.001221	-0.005646
25.235	0.017853	-0.054779	0.021667	-0.006561	0.006409	0.087128	-0.029755	-0.001221	0.045929	-0.043335	-0.009155	0.020599	-0.21698	-0.12634	-0.1181	-0.036774	-0.006256	-0.21255	-0.098572	0.12116	-0.006561	-0.005493	0.014648	-0.1358	-0.021057	0.00351	-0.081635	-0.005341	-0.18295	-0.11658	-0.000305	-0.005188
25.236	0.005646	-0.033875	-0.00412	-0.01709	0.007782	0.21957	-0.055084	-0.003662	0.061798	0.056305	0.041046	-0.003204	-0.38437	0.078735	-0.062408	-0.018616	0.009613	-0.17166	-0.072174	0.000763	0.015411	-0.009155	0.013123	-0.14938	-0.023499	0.014038	0.060577	-0.002899	-0.045471	-0.11856	-0.001221	-0.001678
25.237	0.004578	-0.017853	0.046234	-0.009308	0.015564	0.28229	-0.035553	-0.006256	0.07843	0.010986	0.028839	-0.014343	0.20203	0.34027	0.007935	-0.011902	0.005188	-0.16541	0.11032	-0.13657	-0.016785	-0.011902	0.02243	-0.16296	-0.009308	0.004425	0.32135	-0.002136	-0.054169	-0.13443	-0.000458	-0.002747
25.238	0.010529	0.002441	0.11475	0.005493	0.006409	0.13916	-0.019684	-0.005341	0.11276	-0.029907	-0.025024	-0.009613	0.28397	0.45563	0.061188	-0.006256	0.004425	-0.1326	0.1387	-0.12772	-0.033875	0.026245	0.069275	-0.13107	-0.024109	0.000916	0.26703	-0.003357	-0.02594	-0.13046	-0.001831	-0.005188
25.239	0.011902	-0.04715	0.10544	0.013275	-0.009003	0.06134	0.01236	-0.001221	0.12878	-0.088196	-0.022278	-0.002441	0.15762	0.37201	0.043488	0.006714	0.005646	-0.12817	-0.016632	-0.00061	-0.032349	0.0354	0.064545	-0.12512	-0.003204	-0.016479	0.1265	-0.005188	-0.13351	-0.080261	-0.002747	-0.002289
25.24	0.001068	-0.073395	0.04776	0.033722	-0.006866	-0.17929	0.075684	-0.00351	0.15106	-0.050964	0.04303	0.000458	-0.009918	0.31632	-0.04425	0.032501	0.0914	-0.10147	-0.089874	0.16037	-0.06134	0.029144	0.11124	-0.13641	-0.006104	-0.023193	0.042267	-0.003357	-0.062256	-0.02655	-0.00351	-0.004883
25.241	-0.012512	-0.090332	0.006866	0.008087	0.012512	-0.27435	0.066986	-0.013428	0.15015	0.006561	0.027466	0.007935	1.2019	0.10544	-0.26642	0.019684	0.1239	-0.061035	-0.023041	0.30075	-0.06485	0.018311	0.09079	-0.14389	-0.021667	-0.005951	0.057678	-0.003204	0.04303	0.018768	-0.005341	-0.006256
25.242	0.006866	-0.06897	0.11002	-0.011292	0.022583	-0.23254	0.054169	0.000763	0.12299	0.12436	0.041504	0.006714	0.63797	0.048828	-0.22858	0.02594	0.089874	-0.10147	0.098572	0.30777	-0.063477	0.016479	0.1506	-0.082855	0.01236	-0.004272	0.069275	-0.008392	0.24475	-0.030365	-0.004272	-0.004425
25.243	0.002899	-0.12146	0.075989	0.013428	0.008087	-0.07843	0.048218	0.012817	0.083313	0.26367	0.036774	0.011139	-0.59418	0.086823	-0.019531	0.029297	0.033112	-0.10925	0.12619	0.11169	-0.063477	0.027161	0.17044	-0.000305	0.032959	0.001068	-0.045319	-0.004272	0.30533	-0.044861	-0.000916	-0.003052
25.244	0.003204	-0.11353	0.10147	0.022888	0.011292	0.19775	0.027161	-0.004883	0.075073	0.31509	-0.011292	0.025635	-0.53818	-0.16861	0.1091	0.021362	-0.0177	-0.085144	0.14389	0.076752	-0.084839	0.030518	0.13275	0.006866	0.020599	-0.002747	0.051575	-0.003815	0.15945	-0.037384	-0.003357	-0.006866
25.245	0.011444	-0.1326	0.10452	0.000458	0.010071	0.18784	0.024872	0.002289	0.082397	0.33539	-0.011902	0.025177	-0.21088	-0.40344	0.18097	0.006714	-0.036774	-0.11749	-0.11307	0.075989	-0.10147	0.022583	0.16937	-0.064545	0.007172	-0.004425	0.30914	-0.008087	0.067444	-0.007935	-0.00061	-0.010834
25.246	0.010681	-0.12436	0.16647	-0.005341	0.014801	0.21393	0.061798	0.001984	0.075836	0.094604	-0.004883	0.000763	0.25162	-0.18951	0.42007	0.007019	-0.015869	-0.15564	-0.23712	-0.006714	-0.11688	-0.001678	0.20157	-0.10742	0.005646	-0.011597	0.63675	-0.004883	0.072021	-0.019531	-0.003052	-0.009155
25.247	0.014954	-0.15182	0.042572	-0.004578	-0.000153	0.22308	0.040436	0.005188	0.076904	-0.093994	-0.040894	0.016632	0.21942	0.011597	0.32654	0.006409	0.015106	-0.12772	-0.16724	-0.003662	-0.086975	-0.028229	0.21149	-0.15595	-0.001678	-0.002899	0.67719	-0.000763	0.059967	-0.079803	-0.003052	-0.003662
25.248	0.001984	-0.15106	-0.06546	-0.010834	-0.006714	0.28809	-0.001373	0.007629	0.06958	-0.23529	-0.036316	0.014038	0.005646	-0.087128	0.16541	0.005493	0.03006	-0.098419	0.22201	-0.11459	0.033112	0.040588	0.2182	-0.17456	-0.002136	-0.007782	-0.036011	-0.004272	-0.033417	-0.043335	-0.007629	0.000763
25.249	-0.004883	-0.13916	-0.041199	0.016174	0.004272	0.26733	-0.052795	0.005341	0.044708	-0.093689	-0.007935	0.002289	0.069275	-0.13473	0.063934	0.005035	-0.010834	-0.054321	0.33493	-0.16266	0.22827	0.081635	0.12955	-0.11017	0.019684	-0.010681	-0.092468	-0.006866	-0.086823	-0.005188	0.000153	-0.003967
25.25	0.012207	-0.18204	-0.01236	0.010223	0.016174	0.13412	0.028534	0.010071	-0.039978	0.06073	0.010986	0.005035	-0.18005	-0.21698	-0.076752	-0.014801	-0.055237	-0.074615	0.12207	-0.10361	0.005188	0.13825	0.056	-0.04837	0.017853	-0.006561	0.3479	-0.00885	-0.098877	0.018616	-0.004425	-0.010223
25.251	-0.002441	-0.1622	-0.068054	0.018463	0.030212	-0.25146	0.032043	0.001526	-0.023956	0.18494	0.059509	0.007172	-0.26398	-0.16861	-0.11856	-0.014191	0.010223	-0.098877	-0.13184	-0.007935	0.002594	0.12909	-0.03067	-0.021667	-0.006714	0.001526	-0.027771	-0.004425	-0.012054	-0.051117	-0.002747	-0.00351
25.252	0.005646	-0.14267	0.063019	0.007935	0.02533	-0.35523	0.061035	0.002136	-0.018616	0.30441	0.032654	0.00351	0.27008	0.03952	-0.1297	-0.007935	-0.010376	-0.074768	-0.15778	0.030518	0.083771	0.07019	-0.074921	0.020905	0.003662	0.001831	-0.58762	-0.005646	0.10834	-0.00412	-0.002594	0.000763
25.253	0.007935	-0.18539	0.12573	-0.002136	-0.004425	-0.13718	0.065002	0.008392	-0.033875	0.62149	0.01358	0.001373	0.45624	0.065155	-0.16113	-0.011139	-0.028076	-0.098267	-0.11475	0.063477	-0.023956	0.034943	-0.070496	-0.001984	0.017548	-0.008545	-0.62927	-0.00824	0.19348	0.015106	-0.000458	-0.003357
25.254	-0.011292	-0.16953	0.12177	-0.040894	-0.008392	-0.13321	0.036774	0.008545	-0.024872	0.57388	-0.003967	-0.002594	0.30716	0.050964	-0.055084	-0.012817	-0.028687	-0.094604	0.069122	-0.085907	-0.076752	0.005035	-0.053406	-0.059967	0.000305	-0.017548	-0.56152	-0.008087	0.13107	0.009613	0.002747	0.001221
25.255	-0.004272	-0.18158	0.050964	0.006866	0.002899	-0.24643	0.029602	0.010071	-0.023346	-0.28046	-0.019226	-0.005188	-0.069275	-0.015259	0.06134	-0.002594	-0.03067	-0.098572	0.073242	-0.10391	-0.069122	0.019836	-0.000153	-0.066681	0.004883	-0.016327	-0.38834	-0.005341	0.04303	0.034027	-0.002289	-0.002747
